HIERARCHY
ROOT root
{
  OFFSET 0 87.9003 0
  CHANNELS 6 Xposition Yposition Zposition Zrotation Xrotation Yrotation
  JOINT torso_1
  {
    OFFSET 0 4.78511 -1.08482
    CHANNELS 6 Xposition Yposition Zposition Zrotation Xrotation Yrotation
    JOINT torso_2
    {
      OFFSET 0 5.29195 1.00949
      CHANNELS 6 Xposition Yposition Zposition Zrotation Xrotation Yrotation
      JOINT torso_3
      {
        OFFSET -9.66735e-18 5.64355 0.108362
        CHANNELS 6 Xposition Yposition Zposition Zrotation Xrotation Yrotation
        JOINT torso_4
        {
          OFFSET -1.04072e-17 6.12977 -0.417886
          CHANNELS 6 Xposition Yposition Zposition Zrotation Xrotation Yrotation
          JOINT torso_5
          {
            OFFSET -1.85891e-17 7.16586 -1.41888
            CHANNELS 6 Xposition Yposition Zposition Zrotation Xrotation Yrotation
            JOINT torso_6
            {
              OFFSET -2.38665e-17 8.94839 -0.861631
              CHANNELS 6 Xposition Yposition Zposition Zrotation Xrotation Yrotation
              JOINT torso_7
              {
                OFFSET -2.73615e-17 9.94144 1.48576
                CHANNELS 6 Xposition Yposition Zposition Zrotation Xrotation Yrotation
                JOINT neck_1
                {
                  OFFSET -1.21725e-17 4.50977 0.67399
                  CHANNELS 6 Xposition Yposition Zposition Zrotation Xrotation Yrotation
                  JOINT neck_2
                  {
                    OFFSET -1.70689e-17 4.54241 0.39741
                    CHANNELS 6 Xposition Yposition Zposition Zrotation Xrotation Yrotation
                    JOINT head
                    {
                      OFFSET -1.89342e-17 4.5512 0.720839
                      CHANNELS 6 Xposition Yposition Zposition Zrotation Xrotation Yrotation
                      End Site
                      {
                        OFFSET 0 0.1 0
                      }
                    }
                  }
                }
                JOINT l_shoulder
                {
                  OFFSET 1.16172 -7.16758 7.09827
                  CHANNELS 6 Xposition Yposition Zposition Zrotation Xrotation Yrotation
                  JOINT l_up_arm
                  {
                    OFFSET 12.2059 3.06167 -3.07978
                    CHANNELS 6 Xposition Yposition Zposition Zrotation Xrotation Yrotation
                    JOINT l_low_arm
                    {
                      OFFSET 27.5197 0.056351 0.129118
                      CHANNELS 6 Xposition Yposition Zposition Zrotation Xrotation Yrotation
                      JOINT l_hand
                      {
                        OFFSET 22.8331 0.0467536 0.107129
                        CHANNELS 6 Xposition Yposition Zposition Zrotation Xrotation Yrotation
                        End Site
                        {
                          OFFSET 0.1 0 0
                        }
                      }
                    }
                  }
                }
                JOINT r_shoulder
                {
                  OFFSET -1.16172 -7.16756 7.09818
                  CHANNELS 6 Xposition Yposition Zposition Zrotation Xrotation Yrotation
                  JOINT r_up_arm
                  {
                    OFFSET -12.2059 3.06167 -3.07978
                    CHANNELS 6 Xposition Yposition Zposition Zrotation Xrotation Yrotation
                    JOINT r_low_arm
                    {
                      OFFSET -27.5197 0.056351 0.129118
                      CHANNELS 6 Xposition Yposition Zposition Zrotation Xrotation Yrotation
                      JOINT r_hand
                      {
                        OFFSET -22.8331 0.0467534 0.107129
                        CHANNELS 6 Xposition Yposition Zposition Zrotation Xrotation Yrotation
                        End Site
                        {
                          OFFSET -0.1 0 0
                        }
                      }
                    }
                  }
                }
              }
            }
          }
        }
      }
    }
  }
  JOINT l_up_leg
  {
    OFFSET 8.70282 -3.96247 1.9152
    CHANNELS 6 Xposition Yposition Zposition Zrotation Xrotation Yrotation
    JOINT l_low_leg
    {
      OFFSET -0.803084 -36.5309 -0.617314
      CHANNELS 6 Xposition Yposition Zposition Zrotation Xrotation Yrotation
      JOINT l_foot
      {
        OFFSET -2.19176 -38.0664 -5.69911
        CHANNELS 6 Xposition Yposition Zposition Zrotation Xrotation Yrotation
        JOINT l_toes
        {
          OFFSET 0.734061 -9.31305 11.7736
          CHANNELS 6 Xposition Yposition Zposition Zrotation Xrotation Yrotation
          End Site
          {
            OFFSET 0 0 0.1
          }
        }
      }
    }
  }
  JOINT r_up_leg
  {
    OFFSET -8.70282 -3.96247 1.9152
    CHANNELS 6 Xposition Yposition Zposition Zrotation Xrotation Yrotation
    JOINT r_low_leg
    {
      OFFSET 0.803084 -36.5309 -0.617314
      CHANNELS 6 Xposition Yposition Zposition Zrotation Xrotation Yrotation
      JOINT r_foot
      {
        OFFSET 2.19176 -38.0664 -5.69911
        CHANNELS 6 Xposition Yposition Zposition Zrotation Xrotation Yrotation
        JOINT r_toes
        {
          OFFSET -0.734061 -9.31305 11.7736
          CHANNELS 6 Xposition Yposition Zposition Zrotation Xrotation Yrotation
          End Site
          {
            OFFSET 0 0 0.1
          }
        }
      }
    }
  }
}
MOTION
Frames: 4
Frame Time: 0.020000
-8.79332 85.1995 -16.1389 -4.11734 -0.158364 -4.63627 0 4.78511 -1.08482 -0.291293 -6.80435 -0.230937 0 5.29195 1.00949 -0.0230541 -5.18969 -0.212785 -9.66735e-18 5.64355 0.108362 0.0420111 -2.20914 -0.143702 -1.04072e-17 6.12977 -0.417886 0.0519676 2.73716 -0.219775 -1.85891e-17 7.16586 -1.41888 -0.0426301 5.20157 -0.135867 -2.38665e-17 8.94839 -0.861631 -0.244775 6.91518 -0.150783 -2.73615e-17 9.94144 1.48576 -0.0440868 -0.333257 0.078996 -1.21725e-17 4.50977 0.67399 0.736213 9.90036 1.69881 -1.70689e-17 4.54241 0.39741 1.01484 -3.44014 0.723206 -1.89342e-17 4.5512 0.720839 1.6125 -5.39741 1.09247 1.16172 -7.16758 7.09827 26.874 -5.03142 16.9422 12.2059 3.06167 -3.07978 17.8419 -68.4202 -4.02008 27.5197 0.056351 0.129118 10.7306 -6.57396 -63.4854 22.8331 0.0467536 0.107129 -5.65414 -39.865 4.4776 -1.16172 -7.16756 7.09818 -23.6314 -3.18621 -16.2098 -12.2059 3.06167 -3.07978 -20.8378 -44.1441 -16.3211 -27.5197 0.056351 0.129118 -8.10996 -3.13006 42.7458 -22.8331 0.0467534 0.107129 -2.77249 -31.4084 4.15483 8.70282 -3.96247 1.9152 28.919 -0.505943 -2.45285 -0.803084 -36.5309 -0.617314 -1.26064 4.70661 -0.0303851 -2.19176 -38.0664 -5.69911 -21.1262 12.3232 20.7217 0.734061 -9.31305 11.7736 1.21826e-14 4.08811e-16 -1.21312e-15 -8.70282 -3.96247 1.9152 -15.0576 -5.03389 9.2776 0.803084 -36.5309 -0.617314 3.17636 11.7641 -0.121196 2.19176 -38.0664 -5.69911 19.387 1.46304 -16.7153 -0.734061 -9.31305 11.7736 -4.0728e-16 -5.74157e-16 -1.27513e-14 
-9.60975 84.9372 -16.2456 -4.69692 0.000451197 -4.94045 0 4.78511 -1.08482 -0.0161128 -6.79013 -0.332981 0 5.29195 1.00949 0.22846 -5.11994 -0.277352 -9.66735e-18 5.64355 0.108362 0.244652 -2.16323 -0.217984 -1.04072e-17 6.12977 -0.417886 0.218064 2.75975 -0.293703 -1.85891e-17 7.16586 -1.41888 0.04774 5.19404 -0.226282 -2.38665e-17 8.94839 -0.861631 -0.233345 6.87071 -0.234471 -2.73615e-17 9.94144 1.48576 -0.0745932 -0.311179 0.123674 -1.21725e-17 4.50977 0.67399 0.60866 9.98338 2.44336 -1.70689e-17 4.54241 0.39741 0.790499 -3.66679 1.0797 -1.89342e-17 4.5512 0.720839 2.13954 -5.13399 1.74062 1.16172 -7.16758 7.09827 25.7301 -4.86466 16.6583 12.2059 3.06167 -3.07978 19.5067 -65.3746 1.57018 27.5197 0.056351 0.129118 10.3494 -5.88159 -59.721 22.8331 0.0467536 0.107129 -4.71734 -41.8473 3.31594 -1.16172 -7.16756 7.09818 -22.4625 -3.10196 -15.9799 -12.2059 3.06167 -3.07978 -20.0206 -40.5848 -20.7445 -27.5197 0.056351 0.129118 -7.75896 -2.82173 40.5133 -22.8331 0.0467534 0.107129 -3.35068 -36.8221 3.95426 8.70282 -3.96247 1.9152 30.1978 -0.890797 -2.37002 -0.803084 -36.5309 -0.617314 -1.43985 5.37403 -0.0262893 -2.19176 -38.0664 -5.69911 -21.3399 12.28 21.0674 0.734061 -9.31305 11.7736 8.94065e-15 -3.07789e-16 -4.78183e-16 -8.70282 -3.96247 1.9152 -13.7598 -5.784 10.0427 0.803084 -36.5309 -0.617314 3.55706 13.1369 -0.179299 2.19176 -38.0664 -5.69911 18.0789 -0.504939 -16.3908 -0.734061 -9.31305 11.7736 -1.23512e-15 -5.40749e-16 -1.27163e-14 
-10.4715 84.6175 -16.4211 -5.35782 0.16739 -5.2691 0 4.78511 -1.08482 0.275044 -6.79186 -0.435704 0 5.29195 1.00949 0.491695 -5.05765 -0.343601 -9.66735e-18 5.64355 0.108362 0.455364 -2.09787 -0.295822 -1.04072e-17 6.12977 -0.417886 0.389515 2.84452 -0.371055 -1.85891e-17 7.16586 -1.41888 0.139246 5.29515 -0.32295 -2.38665e-17 8.94839 -0.861631 -0.228272 6.95966 -0.331252 -2.73615e-17 9.94144 1.48576 -0.105085 -0.296958 0.161022 -1.21725e-17 4.50977 0.67399 0.456341 10.0398 3.20025 -1.70689e-17 4.54241 0.39741 0.553533 -4.05603 1.43814 -1.89342e-17 4.5512 0.720839 2.70803 -5.05842 2.26102 1.16172 -7.16758 7.09827 24.4113 -4.80763 16.3748 12.2059 3.06167 -3.07978 19.2457 -62.7168 5.96114 27.5197 0.056351 0.129118 9.98784 -5.30991 -56.4995 22.8331 0.0467536 0.107129 -3.97719 -42.422 2.24586 -1.16172 -7.16756 7.09818 -21.069 -3.11638 -15.7509 -12.2059 3.06167 -3.07978 -18.2908 -37.7292 -24.5942 -27.5197 0.056351 0.129118 -7.45529 -2.57361 38.6382 -22.8331 0.0467534 0.107129 -3.34184 -43.4985 3.94715 8.70282 -3.96247 1.9152 31.6032 -1.24239 -2.2159 -0.803084 -36.5309 -0.617314 -1.61626 6.03012 -0.0202125 -2.19176 -38.0664 -5.69911 -21.5099 12.0521 21.3612 0.734061 -9.31305 11.7736 5.95569e-15 -5.42793e-16 -2.39921e-16 -8.70282 -3.96247 1.9152 -12.3105 -6.68156 11.1868 0.803084 -36.5309 -0.617314 3.99025 14.6825 -0.256437 2.19176 -38.0664 -5.69911 16.6997 -2.55671 -16.1553 -0.734061 -9.31305 11.7736 -1.04605e-15 -5.45029e-16 -1.27206e-14 
-11.3062 84.2773 -16.716 -6.06493 0.330397 -5.41905 0 4.78511 -1.08482 0.583143 -6.75812 -0.530989 0 5.29195 1.00949 0.766172 -4.96753 -0.407245 -9.66735e-18 5.64355 0.108362 0.674178 -1.99899 -0.374293 -1.04072e-17 6.12977 -0.417886 0.565836 2.97166 -0.44918 -1.85891e-17 7.16586 -1.41888 0.233267 5.45523 -0.424543 -2.38665e-17 8.94839 -0.861631 -0.226313 7.10543 -0.437676 -2.73615e-17 9.94144 1.48576 -0.131861 -0.278949 0.191621 -1.21725e-17 4.50977 0.67399 0.292096 10.0059 3.88246 -1.70689e-17 4.54241 0.39741 0.328186 -4.5988 1.75743 -1.89342e-17 4.5512 0.720839 3.16868 -5.11233 2.61047 1.16172 -7.16758 7.09827 23.0119 -4.7984 16.0599 12.2059 3.06167 -3.07978 17.4336 -60.3453 9.81446 27.5197 0.056351 0.129118 9.71873 -4.92588 -54.2657 22.8331 0.0467536 0.107129 -3.39186 -42.3985 1.55267 -1.16172 -7.16756 7.09818 -19.5178 -3.17341 -15.5219 -12.2059 3.06167 -3.07978 -15.5066 -35.4282 -27.9183 -27.5197 0.056351 0.129118 -7.24281 -2.40953 37.3539 -22.8331 0.0467534 0.107129 -2.61404 -51.1477 4.32139 8.70282 -3.96247 1.9152 33.0583 -1.7408 -2.01667 -0.803084 -36.5309 -0.617314 -1.79805 6.70506 -0.0118301 -2.19176 -38.0664 -5.69911 -21.6795 11.6919 21.6273 0.734061 -9.31305 11.7736 -1.05588e-14 -1.94086e-15 1.16894e-15 -8.70282 -3.96247 1.9152 -10.8185 -7.7592 12.1781 0.803084 -36.5309 -0.617314 4.49711 16.4659 -0.361361 2.19176 -38.0664 -5.69911 15.2753 -4.40374 -16.0539 -0.734061 -9.31305 11.7736 -6.48478e-16 -5.57453e-16 -1.27438e-14 
